%TF.GenerationSoftware,KiCad,Pcbnew,(6.0.5)*%
%TF.CreationDate,2022-07-26T14:11:09-07:00*%
%TF.ProjectId,Final schematic,46696e61-6c20-4736-9368-656d61746963,rev?*%
%TF.SameCoordinates,PX4b17a20PY8a12ae0*%
%TF.FileFunction,Paste,Top*%
%TF.FilePolarity,Positive*%
%FSLAX46Y46*%
G04 Gerber Fmt 4.6, Leading zero omitted, Abs format (unit mm)*
G04 Created by KiCad (PCBNEW (6.0.5)) date 2022-07-26 14:11:09*
%MOMM*%
%LPD*%
G01*
G04 APERTURE LIST*
G04 Aperture macros list*
%AMRoundRect*
0 Rectangle with rounded corners*
0 $1 Rounding radius*
0 $2 $3 $4 $5 $6 $7 $8 $9 X,Y pos of 4 corners*
0 Add a 4 corners polygon primitive as box body*
4,1,4,$2,$3,$4,$5,$6,$7,$8,$9,$2,$3,0*
0 Add four circle primitives for the rounded corners*
1,1,$1+$1,$2,$3*
1,1,$1+$1,$4,$5*
1,1,$1+$1,$6,$7*
1,1,$1+$1,$8,$9*
0 Add four rect primitives between the rounded corners*
20,1,$1+$1,$2,$3,$4,$5,0*
20,1,$1+$1,$4,$5,$6,$7,0*
20,1,$1+$1,$6,$7,$8,$9,0*
20,1,$1+$1,$8,$9,$2,$3,0*%
G04 Aperture macros list end*
%ADD10R,1.150000X1.400000*%
%ADD11R,3.050000X2.750000*%
%ADD12R,2.200000X1.200000*%
%ADD13R,1.600000X1.400000*%
%ADD14R,1.400000X1.150000*%
%ADD15RoundRect,0.243750X-0.243750X-0.456250X0.243750X-0.456250X0.243750X0.456250X-0.243750X0.456250X0*%
%ADD16R,4.500000X2.000000*%
%ADD17R,1.800000X1.000000*%
G04 APERTURE END LIST*
D10*
%TO.C,C2*%
X119380000Y35560000D03*
X117680000Y35560000D03*
%TD*%
%TO.C,C7*%
X88470000Y55900000D03*
X90170000Y55900000D03*
%TD*%
D11*
%TO.C,U2*%
X127425000Y66295000D03*
X130775000Y66295000D03*
X130775000Y63245000D03*
X127425000Y63245000D03*
D12*
X122800000Y67050000D03*
X122800000Y62490000D03*
%TD*%
D10*
%TO.C,C1*%
X75780000Y77470000D03*
X74080000Y77470000D03*
%TD*%
D13*
%TO.C,SW3*%
X68390000Y13680000D03*
X76390000Y13680000D03*
X68390000Y9180000D03*
X76390000Y9180000D03*
%TD*%
D10*
%TO.C,R6*%
X73240000Y17780000D03*
X71540000Y17780000D03*
%TD*%
D14*
%TO.C,R4*%
X101600000Y78310000D03*
X101600000Y80010000D03*
%TD*%
D10*
%TO.C,C4*%
X74080000Y62230000D03*
X75780000Y62230000D03*
%TD*%
%TO.C,R7*%
X53672000Y3556000D03*
X55372000Y3556000D03*
%TD*%
D15*
%TO.C,D1*%
X67642500Y77470000D03*
X69517500Y77470000D03*
%TD*%
D10*
%TO.C,C9*%
X76620000Y18288000D03*
X78320000Y18288000D03*
%TD*%
%TO.C,R10*%
X90258000Y3556000D03*
X88558000Y3556000D03*
%TD*%
%TO.C,R5*%
X62650000Y77470000D03*
X64350000Y77470000D03*
%TD*%
D13*
%TO.C,SW1*%
X89980000Y84800000D03*
X97980000Y84800000D03*
X89980000Y80300000D03*
X97980000Y80300000D03*
%TD*%
D10*
%TO.C,C5*%
X124040000Y59690000D03*
X122340000Y59690000D03*
%TD*%
D13*
%TO.C,SW2*%
X51372000Y13680000D03*
X59372000Y13680000D03*
X51372000Y9180000D03*
X59372000Y9180000D03*
%TD*%
D10*
%TO.C,R1*%
X58760000Y62865000D03*
X60460000Y62865000D03*
%TD*%
%TO.C,R2*%
X63840000Y62865000D03*
X65540000Y62865000D03*
%TD*%
D16*
%TO.C,Y1*%
X90610000Y60960000D03*
X82110000Y60960000D03*
%TD*%
D13*
%TO.C,SW4*%
X85408000Y13426000D03*
X93408000Y13426000D03*
X85408000Y8926000D03*
X93408000Y8926000D03*
%TD*%
D10*
%TO.C,R9*%
X67730000Y80010000D03*
X69430000Y80010000D03*
%TD*%
D17*
%TO.C,Y2*%
X12700000Y49550000D03*
X12700000Y52050000D03*
%TD*%
D10*
%TO.C,R8*%
X70944000Y3810000D03*
X72644000Y3810000D03*
%TD*%
%TO.C,C6*%
X85090000Y55900000D03*
X83390000Y55900000D03*
%TD*%
%TO.C,R3*%
X57570000Y77470000D03*
X59270000Y77470000D03*
%TD*%
%TO.C,C3*%
X114466000Y71628000D03*
X116166000Y71628000D03*
%TD*%
%TO.C,C8*%
X84670000Y18288000D03*
X82970000Y18288000D03*
%TD*%
M02*
