%TF.GenerationSoftware,KiCad,Pcbnew,(6.0.5)*%
%TF.CreationDate,2022-07-26T14:11:09-07:00*%
%TF.ProjectId,Final schematic,46696e61-6c20-4736-9368-656d61746963,rev?*%
%TF.SameCoordinates,PX4b17a20PY8a12ae0*%
%TF.FileFunction,Legend,Bot*%
%TF.FilePolarity,Positive*%
%FSLAX46Y46*%
G04 Gerber Fmt 4.6, Leading zero omitted, Abs format (unit mm)*
G04 Created by KiCad (PCBNEW (6.0.5)) date 2022-07-26 14:11:09*
%MOMM*%
%LPD*%
G01*
G04 APERTURE LIST*
G04 Aperture macros list*
%AMRoundRect*
0 Rectangle with rounded corners*
0 $1 Rounding radius*
0 $2 $3 $4 $5 $6 $7 $8 $9 X,Y pos of 4 corners*
0 Add a 4 corners polygon primitive as box body*
4,1,4,$2,$3,$4,$5,$6,$7,$8,$9,$2,$3,0*
0 Add four circle primitives for the rounded corners*
1,1,$1+$1,$2,$3*
1,1,$1+$1,$4,$5*
1,1,$1+$1,$6,$7*
1,1,$1+$1,$8,$9*
0 Add four rect primitives between the rounded corners*
20,1,$1+$1,$2,$3,$4,$5,0*
20,1,$1+$1,$4,$5,$6,$7,0*
20,1,$1+$1,$6,$7,$8,$9,0*
20,1,$1+$1,$8,$9,$2,$3,0*%
G04 Aperture macros list end*
%ADD10C,0.150000*%
%ADD11C,0.120000*%
%ADD12C,3.200000*%
%ADD13R,1.700000X1.700000*%
%ADD14O,1.700000X1.700000*%
%ADD15R,1.400000X1.400000*%
%ADD16C,1.400000*%
%ADD17R,1.600000X1.600000*%
%ADD18O,1.600000X1.600000*%
%ADD19R,3.000000X3.000000*%
%ADD20C,3.000000*%
%ADD21RoundRect,0.500000X0.500000X-1.750000X0.500000X1.750000X-0.500000X1.750000X-0.500000X-1.750000X0*%
%ADD22RoundRect,0.500000X1.500000X0.500000X-1.500000X0.500000X-1.500000X-0.500000X1.500000X-0.500000X0*%
G04 APERTURE END LIST*
D10*
%TO.C,J1*%
X108861333Y69775620D02*
X108861333Y69061334D01*
X108908952Y68918477D01*
X109004190Y68823239D01*
X109147047Y68775620D01*
X109242285Y68775620D01*
X107861333Y68775620D02*
X108432761Y68775620D01*
X108147047Y68775620D02*
X108147047Y69775620D01*
X108242285Y69632762D01*
X108337523Y69537524D01*
X108432761Y69489905D01*
D11*
X104028000Y57728000D02*
X104028000Y60478000D01*
X104028000Y68428000D02*
X104028000Y62478000D01*
X113028000Y57728000D02*
X104028000Y57728000D01*
X113028000Y68428000D02*
X113028000Y66478000D01*
X113028000Y68428000D02*
X104028000Y68428000D01*
X113028000Y57728000D02*
X113028000Y61978000D01*
X108528000Y61028000D02*
G75*
G03*
X110790742Y61965258I2J3199997D01*
G01*
X110728000Y66528000D02*
G75*
G03*
X105661755Y62844295I-2200000J-2300000D01*
G01*
%TD*%
%LPC*%
D12*
%TO.C,H4*%
X136260000Y4780000D03*
%TD*%
D13*
%TO.C,J3*%
X73660000Y82550000D03*
D14*
X73660000Y85090000D03*
X76200000Y82550000D03*
X76200000Y85090000D03*
X78740000Y82550000D03*
X78740000Y85090000D03*
%TD*%
D13*
%TO.C,J2*%
X113030000Y48260000D03*
D14*
X113030000Y45720000D03*
X113030000Y43180000D03*
X113030000Y40640000D03*
X113030000Y38100000D03*
X113030000Y35560000D03*
%TD*%
D15*
%TO.C,DS1*%
X67310000Y35560000D03*
D16*
X69850000Y35560000D03*
X72390000Y35560000D03*
X74930000Y35560000D03*
X77470000Y35560000D03*
X80010000Y35560000D03*
X82550000Y35560000D03*
X82550000Y50800000D03*
X80010000Y50800000D03*
X77470000Y50800000D03*
X74930000Y50800000D03*
X72390000Y50800000D03*
X69850000Y50800000D03*
X67310000Y50800000D03*
%TD*%
D17*
%TO.C,U1*%
X58350000Y66685000D03*
D18*
X60890000Y66685000D03*
X63430000Y66685000D03*
X65970000Y66685000D03*
X68510000Y66685000D03*
X71050000Y66685000D03*
X73590000Y66685000D03*
X76130000Y66685000D03*
X78670000Y66685000D03*
X81210000Y66685000D03*
X83750000Y66685000D03*
X86290000Y66685000D03*
X88830000Y66685000D03*
X91370000Y66685000D03*
X91370000Y74305000D03*
X88830000Y74305000D03*
X86290000Y74305000D03*
X83750000Y74305000D03*
X81210000Y74305000D03*
X78670000Y74305000D03*
X76130000Y74305000D03*
X73590000Y74305000D03*
X71050000Y74305000D03*
X68510000Y74305000D03*
X65970000Y74305000D03*
X63430000Y74305000D03*
X60890000Y74305000D03*
X58350000Y74305000D03*
%TD*%
D12*
%TO.C,H2*%
X136260000Y84780000D03*
%TD*%
%TO.C,H3*%
X6260000Y4780000D03*
%TD*%
D17*
%TO.C,U4*%
X19060000Y52060000D03*
D18*
X19060000Y49520000D03*
X19060000Y46980000D03*
X19060000Y44440000D03*
X26680000Y44440000D03*
X26680000Y46980000D03*
X26680000Y49520000D03*
X26680000Y52060000D03*
%TD*%
D19*
%TO.C,BT1*%
X8706314Y19049983D03*
D20*
X29196314Y19049983D03*
%TD*%
D12*
%TO.C,H1*%
X6260000Y84780000D03*
%TD*%
D17*
%TO.C,U3*%
X86365000Y30480000D03*
D18*
X83825000Y30480000D03*
X81285000Y30480000D03*
X78745000Y30480000D03*
X76205000Y30480000D03*
X73665000Y30480000D03*
X71125000Y30480000D03*
X68585000Y30480000D03*
X66045000Y30480000D03*
X63505000Y30480000D03*
X60965000Y30480000D03*
X58425000Y30480000D03*
X58425000Y22860000D03*
X60965000Y22860000D03*
X63505000Y22860000D03*
X66045000Y22860000D03*
X68585000Y22860000D03*
X71125000Y22860000D03*
X73665000Y22860000D03*
X76205000Y22860000D03*
X78745000Y22860000D03*
X81285000Y22860000D03*
X83825000Y22860000D03*
X86365000Y22860000D03*
%TD*%
D21*
%TO.C,J1*%
X112028000Y64228000D03*
D22*
X109728000Y58928000D03*
X106028000Y61428000D03*
%TD*%
M02*
