M48
; DRILL file {KiCad (6.0.5)} date Tue Jul 26 14:12:19 2022
; FORMAT={-:-/ absolute / inch / decimal}
; #@! TF.CreationDate,2022-07-26T14:12:19-07:00
; #@! TF.GenerationSoftware,Kicad,Pcbnew,(6.0.5)
; #@! TF.FileFunction,MixedPlating,1,2
FMAT,2
INCH
; #@! TA.AperFunction,Plated,PTH,ViaDrill
T1C0.0160
; #@! TA.AperFunction,Plated,PTH,ComponentDrill
T2C0.0315
; #@! TA.AperFunction,Plated,PTH,ComponentDrill
T3C0.0354
; #@! TA.AperFunction,Plated,PTH,ComponentDrill
T4C0.0394
; #@! TA.AperFunction,Plated,PTH,ComponentDrill
T5C0.0591
; #@! TA.AperFunction,NonPlated,NPTH,ComponentDrill
T6C0.1260
%
G90
G05
T1
X0.64Y1.76
X1.42Y0.74
X1.82Y0.36
X1.9Y0.54
X2.44Y0.54
X2.5Y0.78
X2.6Y1.28
X2.6Y0.54
X2.62Y0.36
X2.8Y3.15
X2.8Y1.36
X3.0526Y3.055
X3.08Y0.54
X3.14Y1.28
X3.14Y0.72
X3.2Y1.36
X3.2165Y2.2008
X3.25Y3.35
X3.26Y0.52
X3.28Y0.36
X3.4Y3.35
X3.42Y0.72
X3.6165Y2.2008
X3.76Y2.04
X3.76Y0.52
X4.0Y3.35
X4.5Y2.74
X4.56Y2.72
X4.58Y1.9
X4.58Y1.8
X4.64Y2.22
X4.64Y2.12
X4.64Y2.06
X4.64Y2.0
X4.76Y2.22
X4.76Y2.12
X4.76Y2.06
X4.76Y2.0
X5.32Y2.62
T2
X0.7504Y2.0496
X0.7504Y1.9496
X0.7504Y1.8496
X0.7504Y1.7496
X1.0504Y2.0496
X1.0504Y1.9496
X1.0504Y1.8496
X1.0504Y1.7496
X2.2972Y2.9254
X2.2972Y2.6254
X2.3002Y1.2
X2.3002Y0.9
X2.3972Y2.9254
X2.3972Y2.6254
X2.4002Y1.2
X2.4002Y0.9
X2.4972Y2.9254
X2.4972Y2.6254
X2.5002Y1.2
X2.5002Y0.9
X2.5972Y2.9254
X2.5972Y2.6254
X2.6002Y1.2
X2.6002Y0.9
X2.6972Y2.9254
X2.6972Y2.6254
X2.7002Y1.2
X2.7002Y0.9
X2.7972Y2.9254
X2.7972Y2.6254
X2.8002Y1.2
X2.8002Y0.9
X2.8972Y2.9254
X2.8972Y2.6254
X2.9002Y1.2
X2.9002Y0.9
X2.9972Y2.9254
X2.9972Y2.6254
X3.0002Y1.2
X3.0002Y0.9
X3.0972Y2.9254
X3.0972Y2.6254
X3.1002Y1.2
X3.1002Y0.9
X3.1972Y2.9254
X3.1972Y2.6254
X3.2002Y1.2
X3.2002Y0.9
X3.2972Y2.9254
X3.2972Y2.6254
X3.3002Y1.2
X3.3002Y0.9
X3.3972Y2.9254
X3.3972Y2.6254
X3.4002Y1.2
X3.4002Y0.9
X3.4972Y2.9254
X3.4972Y2.6254
X3.5972Y2.9254
X3.5972Y2.6254
T3
X2.65Y2.0
X2.65Y1.4
X2.75Y2.0
X2.75Y1.4
X2.85Y2.0
X2.85Y1.4
X2.95Y2.0
X2.95Y1.4
X3.05Y2.0
X3.05Y1.4
X3.15Y2.0
X3.15Y1.4
X3.25Y2.0
X3.25Y1.4
T4
X2.9Y3.35
X2.9Y3.25
X3.0Y3.35
X3.0Y3.25
X3.1Y3.35
X3.1Y3.25
X4.45Y1.9
X4.45Y1.8
X4.45Y1.7
X4.45Y1.6
X4.45Y1.5
X4.45Y1.4
T5
X0.3428Y0.75
X1.1495Y0.75
T6
X0.2465Y3.3378
X0.2465Y0.1882
X5.3646Y3.3378
X5.3646Y0.1882
T4
G00X4.2137Y2.4184
M15
G01X4.135Y2.4184
M16
G05
G00X4.3594Y2.32
M15
G01X4.2806Y2.32
M16
G05
G00X4.4106Y2.4794
M15
G01X4.4106Y2.5779
M16
G05
T0
M30
